<?xml version="1.0" encoding="UTF-8"?>
<!DOCTYPE svg PUBLIC "-//W3C//DTD SVG 1.1//EN" "http://www.w3.org/Graphics/SVG/1.1/DTD/svg11.dtd">
<!-- Creator: CorelDRAW -->
<svg xmlns="http://www.w3.org/2000/svg" xml:space="preserve" width="163.092mm" height="166.007mm" version="1.1" style="shape-rendering:geometricPrecision; text-rendering:geometricPrecision; image-rendering:optimizeQuality; fill-rule:evenodd; clip-rule:evenodd"
viewBox="0 0 1061.75 1080.72"
 xmlns:xlink="http://www.w3.org/1999/xlink"
 xmlns:xodm="http://www.corel.com/coreldraw/odm/2003">
 <defs>
  <style type="text/css">
   <![CDATA[
    .fil5 {fill:url(#id0)}
    .fil2 {fill:url(#id1)}
    .fil4 {fill:url(#id2)}
    .fil0 {fill:url(#id3)}
    .fil1 {fill:url(#id4)}
    .fil3 {fill:url(#id5)}
    .fil6 {fill:url(#id6)}
   ]]>
  </style>
  <linearGradient id="id0" gradientUnits="userSpaceOnUse" x1="413.75" y1="1014.49" x2="851.42" y2="981.14">
   <stop offset="0" style="stop-opacity:1; stop-color:#21DBFE"/>
   <stop offset="0.670588" style="stop-opacity:1; stop-color:#2298E3"/>
   <stop offset="1" style="stop-opacity:1; stop-color:#2454C7"/>
  </linearGradient>
  <linearGradient id="id1" gradientUnits="userSpaceOnUse" x1="540.06" y1="205.46" x2="802.88" y2="438.91">
   <stop offset="0" style="stop-opacity:1; stop-color:#1540A3"/>
   <stop offset="0.45098" style="stop-opacity:1; stop-color:#2051B7"/>
   <stop offset="1" style="stop-opacity:1; stop-color:#092E87"/>
  </linearGradient>
  <linearGradient id="id2" gradientUnits="userSpaceOnUse" x1="778" y1="532.18" x2="590.23" y2="1059.78">
   <stop offset="0" style="stop-opacity:1; stop-color:#1540A3"/>
   <stop offset="0.388235" style="stop-opacity:1; stop-color:#2051B7"/>
   <stop offset="1" style="stop-opacity:1; stop-color:#092E87"/>
  </linearGradient>
  <linearGradient id="id3" gradientUnits="userSpaceOnUse" x1="76.36" y1="1055.21" x2="545.08" y2="158.01">
   <stop offset="0" style="stop-opacity:1; stop-color:#0FB1F3"/>
   <stop offset="0.14902" style="stop-opacity:1; stop-color:#096ABA"/>
   <stop offset="1" style="stop-opacity:1; stop-color:#022280"/>
  </linearGradient>
  <linearGradient id="id4" gradientUnits="userSpaceOnUse" x1="-6.24" y1="974.89" x2="422.64" y2="122.38">
   <stop offset="0" style="stop-opacity:1; stop-color:#21DBFE"/>
   <stop offset="1" style="stop-opacity:1; stop-color:#2454C7"/>
  </linearGradient>
  <linearGradient id="id5" gradientUnits="userSpaceOnUse" x1="416.91" y1="563.03" x2="672.96" y2="741.17">
   <stop offset="0" style="stop-opacity:1; stop-color:#1540A3"/>
   <stop offset="0.521569" style="stop-opacity:1; stop-color:#205FB7"/>
   <stop offset="1" style="stop-opacity:1; stop-color:#092E87"/>
  </linearGradient>
  <linearGradient id="id6" gradientUnits="userSpaceOnUse" xlink:href="#id1" x1="971.46" y1="599.32" x2="937.33" y2="1051.68">
  </linearGradient>
 </defs>
 <g id="Layer_x0020_1">
  <metadata id="CorelCorpID_0Corel-Layer"/>
  <g id="_1309821911824">
   <path class="fil0" d="M269.35 934.19c0,0 -36.77,-94.26 33.83,-253.65l230.71 -496.35 -1.28 -2.62 -217.37 458.42c0,0 -81.14,184.8 -183.5,282.17 0,0 -46.61,40.36 -62.83,53.68 0,0 -62.24,48.13 -29.44,89.26 11.99,15.04 33.4,15.3 57.12,10.01 65.31,-14.55 146.35,-105.65 172.77,-140.93z"/>
   <path class="fil1" d="M105.55 1072.69c0,0 -39.3,20.93 -81.99,-4.77 0,0 -45.82,-33.45 -9.65,-100.88 0,0 16.23,-31.64 24.29,-53.38l209 -458.03 147.32 -317.1 24.35 -51.93c0,0 26.34,-80.73 115.27,-86.35 0,0 35.61,-4.35 74.63,23.27 0,0 5.07,1.77 4.84,6.4 -1,19.87 -13.42,90.83 -74.99,160.83 -1.31,1.49 -3.38,-8.05 -4.73,-6.55l-1.28 -2.62 -217.37 458.42c0,0 -81.14,184.8 -183.5,282.17 0,0 -46.61,40.36 -62.83,53.68 0,0 -62.24,48.13 -29.44,89.26 11.99,15.04 33.4,15.3 57.12,10.01 2.99,-0.67 5.92,-1.46 8.97,-2.44z"/>
   <path class="fil2" d="M608.78 23.52c0,0 16.4,11.15 34.08,43.19l55.73 105.81 11.85 22.49c10.37,19.69 26.83,54.16 39.06,87.36 31.52,85.58 51.75,198.47 -21.43,237.69 0,0 -33.44,10.93 -129.99,12.82 -6.6,0.13 -17.18,0.92 -17.47,-1.91 0,0 56.05,-17.1 115.89,-21.85l-162.32 -325.27 0 -0c79.52,-88.17 74.59,-160.34 74.59,-160.34z"/>
   <path class="fil3" d="M711.59 197.52l56.14 108.21 49.28 95.53c0,0 25.79,46.1 28.6,67.93 0,0 21.7,87.57 -50.05,123.23 0,0 -79.98,35.75 -140.43,35.84 -104.96,6.82 -187.08,77.88 -221.5,174.97 -24.46,72.93 -24.03,161.33 45.17,208.52 0,0 27.92,26.14 90.57,38.78 0,0 42.99,8.99 75.86,11.24 0,0 -107.05,2.19 -184.85,-35.09 -123.85,-59.33 -159.57,-206.07 -99.19,-334.51 0,0 36.83,-89.83 140.88,-134.42 0,0 35.2,-18.09 78.54,-26.78 0.69,-0.01 1.34,-0.02 2.02,-0.02 111.42,-1.14 144.9,-18.03 144.9,-18.03 100.43,-53.82 18.22,-241.33 -15.94,-315.41z"/>
   <path class="fil4" d="M812.89 393.27c2.34,4.52 20.5,35.28 35.64,67.82 12,25.78 22.35,51.94 19.71,72.26 -10.25,78.82 -110.96,99.97 -181.84,102.49 -27.57,0.98 -97.79,8.27 -153.46,43.69 0,0 -50.45,31.13 -61.54,74.43 0,0 -2.44,6.42 -5.6,10.67 -13.58,18.3 -46.44,68.52 -40.93,135.57 1.78,102.27 96.67,141.05 182.44,155.32l-0.17 1.77c-12.7,-1.97 -25.17,-4.14 -37.75,-6.75l-0.01 -0c-62.66,-12.64 -92.16,-37.93 -92.16,-37.93 -69.21,-47.19 -71.76,-137.5 -47.29,-210.43 34.42,-97.09 120.24,-171.06 225.2,-177.87 105.9,-11.67 138.11,-35.23 138.11,-35.23 71.75,-35.66 49.28,-122.98 49.28,-122.98 -2.81,-21.83 -25.5,-64.84 -25.5,-64.84l-4.12 -7.99z"/>
   <path class="fil5" d="M471.39 753.96c0,0 -19.56,65.14 12,108.54 0,0 22.31,33.59 88.52,51.03 0,0 38.11,15.5 248.06,11.95 0,0 40.17,0.24 57.02,-1.7 0,0 46.92,-1.48 38.28,-41.23 0,0 5.82,14.16 4.2,32.69 -1.62,18.52 -15.25,55.71 -47.44,86.26 0,0 -32.46,30.85 -92.09,54.18 -17.82,9.93 -167.6,0.45 -188.84,-2.31 -20.76,-2.7 -56.74,-15.3 -58.34,-15.72 -59.33,-22.9 -108.78,-64.18 -110.05,-136.98 -6.8,-82.66 48.66,-146.7 48.66,-146.7z"/>
   <path class="fil6" d="M532.78 1037.65c1.6,0.42 37.14,9.68 57.9,12.39 10.2,1.34 20.9,2.04 31.16,2.82 3.76,0.29 7.52,0.56 11.28,0.83 35.29,2.51 130.51,8.54 145.41,0.24 59.63,-23.34 91.47,-53.4 91.47,-53.4 32.18,-30.55 46.07,-66.36 47.69,-84.88 1.62,-18.52 -2.41,-33.09 -2.41,-33.09 -2.77,-26.23 -30.66,-72.26 -30.66,-72.26l-63.96 -118.87c75.97,-26.41 106.38,-78.51 106.38,-78.51 7.48,7.98 94.72,183.96 94.72,183.96 34.4,67.3 39.98,138.75 39.98,138.75 -0.49,50.48 -21.8,72.77 -21.8,72.77 -41.63,60.64 -174.22,52.28 -174.22,52.28l-72.24 1.12 -70.93 0.47 -77.32 -0.47 -3.79 -0.29 -0.02 -0c-11.19,-0.91 -23.27,-2.51 -34.28,-4.2l0 0 -0.02 -0c-24.71,-4.11 -50.34,-10.37 -74.35,-19.64z"/>
  </g>
 </g>
</svg>
