<svg xmlns="http://www.w3.org/2000/svg" width="617" height="628" viewBox="0 0 617 628">
  <defs>
    <radialGradient id="g0" cx="554.920" cy="410.413" r="180.133" gradientUnits="userSpaceOnUse"><stop offset="0.0000" stop-color="rgb(139,94,10)"/><stop offset="0.4831" stop-color="rgb(181,130,27)"/><stop offset="0.9664" stop-color="rgb(122,82,8)"/></radialGradient><radialGradient id="g1" cx="240.207" cy="588.975" r="254.831" gradientUnits="userSpaceOnUse"><stop offset="0.0000" stop-color="rgb(255,211,122)"/><stop offset="0.6706" stop-color="rgb(245,179,1)"/><stop offset="1.0000" stop-color="rgb(212,137,10)"/></radialGradient><radialGradient id="g2" cx="451.676" cy="308.965" r="325.124" gradientUnits="userSpaceOnUse"><stop offset="0.0000" stop-color="rgb(139,94,10)"/><stop offset="0.3882" stop-color="rgb(181,130,27)"/><stop offset="1.0000" stop-color="rgb(122,82,8)"/></radialGradient><radialGradient id="g3" cx="242.042" cy="326.875" r="181.089" gradientUnits="userSpaceOnUse"><stop offset="0.0000" stop-color="rgb(139,94,10)"/><stop offset="0.5216" stop-color="rgb(181,130,27)"/><stop offset="1.0000" stop-color="rgb(122,82,8)"/></radialGradient><radialGradient id="g4" cx="313.538" cy="119.283" r="204.085" gradientUnits="userSpaceOnUse"><stop offset="0.0000" stop-color="rgb(139,94,10)"/><stop offset="0.4510" stop-color="rgb(181,130,27)"/><stop offset="1.0000" stop-color="rgb(122,82,8)"/></radialGradient><radialGradient id="g5" cx="-3.623" cy="565.985" r="630.823" gradientUnits="userSpaceOnUse"><stop offset="0.0000" stop-color="rgb(255,211,122)"/><stop offset="1.0000" stop-color="rgb(212,137,10)"/></radialGradient><radialGradient id="g6" cx="44.332" cy="612.615" r="587.677" gradientUnits="userSpaceOnUse"><stop offset="0.0000" stop-color="rgb(255,191,46)"/><stop offset="0.1490" stop-color="rgb(181,130,27)"/><stop offset="1.0000" stop-color="rgb(122,82,8)"/></radialGradient>
  </defs>
  <path d="M 309.311,602.421 C 310.240,602.665 330.873,608.041 342.926,609.614 C 348.847,610.392 355.059,610.799 361.016,611.251 C 363.199,611.420 365.382,611.576 367.565,611.733 C 388.053,613.190 443.334,616.691 451.984,611.873 C 486.603,598.322 505.088,580.871 505.088,580.871 C 523.770,563.135 531.834,542.345 532.775,531.593 C 533.715,520.841 531.376,512.382 531.376,512.382 C 529.768,497.154 513.576,470.430 513.576,470.430 C 513.576,470.430 476.443,401.419 476.443,401.419 C 520.548,386.087 538.203,355.839 538.203,355.839 C 542.546,360.472 593.194,462.639 593.194,462.639 C 613.165,501.711 616.405,543.192 616.405,543.192 C 616.120,572.499 603.749,585.440 603.749,585.440 C 579.580,620.645 502.603,615.791 502.603,615.791 C 502.603,615.791 460.663,616.442 460.663,616.442 C 460.663,616.442 419.484,616.714 419.484,616.714 C 419.484,616.714 374.595,616.442 374.595,616.442 C 374.595,616.442 372.395,616.273 372.395,616.273 C 372.395,616.273 372.383,616.273 372.383,616.273 C 365.887,615.745 358.874,614.816 352.482,613.835 C 352.482,613.835 352.470,613.835 352.470,613.835 C 338.124,611.449 323.245,607.814 309.305,602.433 C 309.305,602.433 309.311,602.421 309.311,602.421 C 309.311,602.421 309.311,602.421 309.311,602.421 Z" fill="url(#g0)"/><path d="M 273.671,437.722 C 273.671,437.722 262.315,475.539 280.637,500.736 C 280.637,500.736 293.590,520.237 332.029,530.362 C 332.029,530.362 354.154,539.360 476.043,537.299 C 476.043,537.299 499.364,537.439 509.146,536.313 C 509.146,536.313 536.386,535.453 531.370,512.376 C 531.370,512.376 534.749,520.597 533.808,531.355 C 532.868,542.107 524.955,563.698 506.267,581.434 C 506.267,581.434 487.422,599.344 452.803,612.889 C 442.457,618.654 355.501,613.150 343.170,611.547 C 331.117,609.980 310.229,602.665 309.300,602.421 C 274.855,589.126 246.146,565.161 245.409,522.896 C 241.461,474.907 273.659,437.727 273.659,437.727 C 273.659,437.727 273.671,437.722 273.671,437.722 C 273.671,437.722 273.671,437.722 273.671,437.722 Z" fill="url(#g1)"/><path d="M 471.932,228.319 C 473.291,230.943 483.834,248.801 492.623,267.693 C 499.590,282.659 505.599,297.847 504.066,309.644 C 498.115,355.404 439.647,367.683 398.497,369.146 C 382.491,369.715 341.724,373.947 309.404,394.510 C 309.404,394.510 280.115,412.583 273.676,437.721 C 273.676,437.721 272.260,441.449 270.425,443.916 C 262.541,454.540 243.464,483.696 246.663,522.623 C 247.696,581.997 302.786,604.511 352.580,612.795 C 352.580,612.795 352.482,613.823 352.482,613.823 C 345.109,612.679 337.869,611.419 330.565,609.904 C 330.565,609.904 330.560,609.904 330.560,609.904 C 294.182,602.566 277.055,587.884 277.055,587.884 C 236.875,560.487 235.394,508.056 249.600,465.716 C 269.583,409.349 319.407,366.405 380.343,362.452 C 441.824,355.677 460.524,341.999 460.524,341.999 C 502.179,321.296 489.134,270.601 489.134,270.601 C 487.503,257.927 474.330,232.958 474.330,232.958 C 474.330,232.958 471.938,228.319 471.938,228.319 C 471.938,228.319 471.932,228.319 471.932,228.319 C 471.932,228.319 471.932,228.319 471.932,228.319 Z" fill="url(#g2)"/><path d="M 413.121,114.674 C 413.121,114.674 445.714,177.496 445.714,177.496 C 445.714,177.496 474.324,232.957 474.324,232.957 C 474.324,232.957 489.297,259.721 490.928,272.395 C 490.928,272.395 503.526,323.235 461.871,343.937 C 461.871,343.937 415.438,364.692 380.343,364.745 C 319.407,368.704 271.731,409.959 251.749,466.325 C 237.548,508.666 237.798,559.987 277.972,587.384 C 277.972,587.384 294.182,602.560 330.554,609.898 C 330.554,609.898 355.512,615.117 374.595,616.424 C 374.595,616.424 312.446,617.695 267.279,596.052 C 195.376,561.607 174.638,476.416 209.693,401.848 C 209.693,401.848 231.075,349.696 291.482,323.809 C 291.482,323.809 311.918,313.307 337.079,308.262 C 337.480,308.256 337.857,308.250 338.252,308.250 C 402.938,307.588 422.375,297.783 422.375,297.783 C 480.681,266.537 432.953,157.676 413.121,114.668 C 413.121,114.668 413.121,114.674 413.121,114.674 C 413.121,114.674 413.121,114.674 413.121,114.674 Z" fill="url(#g3)"/><path d="M 353.434,13.656 C 353.434,13.656 362.955,20.129 373.219,38.731 C 373.219,38.731 405.574,100.160 405.574,100.160 C 405.574,100.160 412.454,113.217 412.454,113.217 C 418.474,124.648 428.030,144.660 435.130,163.934 C 453.430,213.619 465.174,279.158 422.689,301.928 C 422.689,301.928 403.275,308.274 347.222,309.371 C 343.390,309.446 337.248,309.905 337.079,308.262 C 337.079,308.262 369.620,298.334 404.361,295.577 C 404.361,295.577 310.124,106.738 310.124,106.738 C 356.290,55.550 353.428,13.650 353.428,13.650 C 353.428,13.650 353.434,13.656 353.434,13.656 C 353.434,13.656 353.434,13.656 353.434,13.656 Z" fill="url(#g4)"/><path d="M 61.278,622.764 C 61.278,622.764 38.462,634.915 13.678,619.995 C 13.678,619.995 -12.923,600.575 8.076,561.427 C 8.076,561.427 17.498,543.058 22.177,530.437 C 22.177,530.437 143.515,264.523 143.515,264.523 C 143.515,264.523 229.043,80.427 229.043,80.427 C 229.043,80.427 243.180,50.278 243.180,50.278 C 243.180,50.278 258.472,3.410 310.101,0.147 C 310.101,0.147 330.775,-2.379 353.428,13.656 C 353.428,13.656 356.372,14.684 356.238,17.372 C 355.657,28.908 348.447,70.105 312.702,110.744 C 311.941,111.609 310.739,106.070 309.956,106.941 C 309.956,106.941 309.213,105.420 309.213,105.420 C 309.213,105.420 183.016,371.561 183.016,371.561 C 183.016,371.561 135.909,478.848 76.483,535.378 C 76.483,535.378 49.423,558.809 40.006,566.542 C 40.006,566.542 3.872,594.485 22.915,618.363 C 29.876,627.095 42.305,627.246 56.076,624.175 C 57.812,623.786 59.513,623.327 61.284,622.758 C 61.284,622.758 61.278,622.764 61.278,622.764 C 61.278,622.764 61.278,622.764 61.278,622.764 Z" fill="url(#g5)"/><path d="M 156.374,542.356 C 156.374,542.356 135.027,487.632 176.015,395.097 C 176.015,395.097 309.956,106.935 309.956,106.935 C 309.956,106.935 309.213,105.414 309.213,105.414 C 309.213,105.414 183.016,371.555 183.016,371.555 C 183.016,371.555 135.909,478.843 76.483,535.372 C 76.483,535.372 49.423,558.803 40.007,566.536 C 40.007,566.536 3.872,594.479 22.915,618.357 C 29.876,627.089 42.306,627.240 56.076,624.169 C 93.993,615.721 141.042,562.832 156.380,542.350 C 156.380,542.350 156.374,542.356 156.374,542.356 C 156.374,542.356 156.374,542.356 156.374,542.356 Z" fill="url(#g6)"/>
</svg>